<svg height="13.505" viewBox="0 0 16.882 13.505" width="16.882" xmlns="http://www.w3.org/2000/svg"><path d="m16.882 1.612a7 7 0 0 1 -1.989.538 3.435 3.435 0 0 0 1.523-1.886 7.047 7.047 0 0 1 -2.2.827 3.478 3.478 0 0 0 -2.529-1.076 3.438 3.438 0 0 0 -3.463 3.41 3.365 3.365 0 0 0 .089.777 9.883 9.883 0 0 1 -7.137-3.563 3.346 3.346 0 0 0 -.468 1.713 3.393 3.393 0 0 0 1.54 2.839 3.5 3.5 0 0 1 -1.569-.428v.042a3.428 3.428 0 0 0 2.778 3.345 3.559 3.559 0 0 1 -.912.119 3.328 3.328 0 0 1 -.652-.063 3.459 3.459 0 0 0 3.235 2.369 7.016 7.016 0 0 1 -4.3 1.458 7.4 7.4 0 0 1 -.828-.047 9.9 9.9 0 0 0 5.308 1.534 9.707 9.707 0 0 0 9.853-9.7l-.012-.441a6.859 6.859 0 0 0 1.732-1.763z" fill="#fff" transform="translate(0 -.015)"/></svg>